# Blender 4.5.4 LTS
# www.blender.org
mtllib scene.mtl
o 锥体
v 141.413269 0.322375 -168.529785
v 128.557510 5.322375 -153.208893
v 171.574585 0.322375 -137.703171
v 155.976883 5.322375 -125.184700
v 195.142380 0.322375 -101.584702
v 177.402161 5.322375 -92.349716
v 211.210968 0.322375 -61.562401
v 192.009979 5.322375 -55.965820
v 219.162842 0.322375 -19.174288
v 199.238953 5.322375 -17.431170
v 218.692398 0.322375 23.950689
v 198.811279 5.322375 21.773344
v 209.817734 0.322375 66.155258
v 190.743393 5.322375 60.141136
v 192.879898 0.322375 105.817513
v 175.345352 5.322375 96.197739
v 168.529785 0.322375 141.413269
v 153.208893 5.322375 128.557510
v 137.703171 0.322375 171.574585
v 125.184700 5.322375 155.976883
v 101.584702 0.322375 195.142380
v 92.349716 5.322375 177.402161
v 61.562397 0.322375 211.210968
v 55.965816 5.322375 192.009979
v 19.174282 0.322375 219.162842
v 17.431164 5.322375 199.238953
v -23.950695 0.322375 218.692398
v -21.773350 5.322375 198.811279
v -66.155258 0.322375 209.817734
v -60.141140 5.322375 190.743393
v -105.817513 0.322375 192.879898
v -96.197739 5.322375 175.345352
v -141.413269 0.322375 168.529785
v -128.557510 5.322375 153.208893
v -171.574585 0.322375 137.703171
v -155.976883 5.322375 125.184700
v -195.142380 0.322375 101.584702
v -177.402161 5.322375 92.349716
v -211.210968 0.322375 61.562386
v -192.009979 5.322375 55.965805
v -219.162842 0.322375 19.174269
v -199.238953 5.322375 17.431150
v -218.692398 0.322375 -23.950708
v -198.811279 5.322375 -21.773363
v -209.817734 0.322375 -66.155258
v -190.743393 5.322375 -60.141151
v -192.879898 0.322375 -105.817513
v -175.345352 5.322375 -96.197739
v -168.529785 0.322375 -141.413269
v -153.208893 5.322375 -128.557510
v -137.703171 0.322375 -171.574585
v -125.184700 5.322375 -155.976883
v -101.584702 0.322375 -195.142380
v -92.349716 5.322375 -177.402161
v -61.562389 0.322375 -211.210968
v -55.965809 5.322375 -192.009979
v -19.174274 0.322375 -219.162842
v -17.431156 5.322375 -199.238953
v 23.950703 0.322375 -218.692398
v 21.773357 5.322375 -198.811279
v 66.155258 0.322375 -209.817734
v 60.141148 5.322375 -190.743393
v 105.817513 0.322375 -192.879898
v 96.197739 5.322375 -175.345352
vn 0.1741 0.9699 -0.1704
vn 0.2040 0.9699 -0.1331
vn 0.2261 0.9699 -0.0908
vn 0.2395 0.9699 -0.0449
vn 0.2436 0.9699 0.0027
vn 0.2384 0.9699 0.0501
vn 0.2241 0.9699 0.0957
vn 0.2011 0.9699 0.1376
vn 0.1704 0.9699 0.1741
vn 0.1331 0.9699 0.2040
vn 0.0908 0.9699 0.2261
vn 0.0449 0.9699 0.2395
vn -0.0027 0.9699 0.2436
vn -0.0501 0.9699 0.2384
vn -0.0957 0.9699 0.2241
vn -0.1376 0.9699 0.2011
vn -0.1741 0.9699 0.1704
vn -0.2040 0.9699 0.1331
vn -0.2261 0.9699 0.0908
vn -0.2395 0.9699 0.0449
vn -0.2436 0.9699 -0.0027
vn -0.2384 0.9699 -0.0501
vn -0.2241 0.9699 -0.0957
vn -0.2011 0.9699 -0.1376
vn -0.1704 0.9699 -0.1741
vn -0.1331 0.9699 -0.2040
vn -0.0908 0.9699 -0.2261
vn -0.0449 0.9699 -0.2395
vn 0.0027 0.9699 -0.2436
vn 0.0501 0.9699 -0.2384
vn -0.0000 1.0000 -0.0000
vn 0.0957 0.9699 -0.2241
vn 0.1376 0.9699 -0.2011
vn -0.0000 -1.0000 -0.0000
vt 8.949945 1.104208
vt 3.736536 5.397746
vt 3.468190 5.251714
vt 8.681600 0.958176
vt 3.199844 5.105683
vt 8.413254 0.812145
vt 2.931498 4.959651
vt 8.144907 0.666113
vt 2.663152 4.813620
vt 7.876561 0.520082
vt 2.394805 4.667589
vt 7.608215 0.374051
vt 2.126460 4.521557
vt 7.339869 0.228020
vt 1.858113 4.375526
vt 7.071523 0.081988
vt 1.589767 4.229495
vt 6.803176 -0.064043
vt 1.321421 4.083463
vt 6.534830 -0.210075
vt 1.053075 3.937432
vt 6.266484 -0.356106
vt 0.784729 3.791401
vt 5.998138 -0.502137
vt 0.516383 3.645369
vt 5.729792 -0.648169
vt 0.248037 3.499338
vt 5.461446 -0.794200
vt -0.020310 3.353307
vt 5.193099 -0.940231
vt -0.288656 3.207275
vt 4.924754 -1.086262
vt -0.557002 3.061244
vt 4.656407 -1.232294
vt -0.825348 2.915213
vt 4.388062 -1.378325
vt -1.093694 2.769181
vt 4.119715 -1.524356
vt -1.362040 2.623150
vt 3.851369 -1.670388
vt -1.630386 2.477119
vt 3.583023 -1.816419
vt -1.898733 2.331087
vt 3.314677 -1.962450
vt -2.167079 2.185056
vt 3.046330 -2.108482
vt -2.435425 2.039025
vt 2.777985 -2.254513
vt -2.703771 1.892994
vt 2.509638 -2.400544
vt -2.972117 1.746962
vt 2.241292 -2.546576
vt -3.240463 1.600931
vt 1.972946 -2.692607
vt -3.508810 1.454900
vt 1.704600 -2.838639
vt -3.777156 1.308868
vt 1.436254 -2.984670
vt -4.045502 1.162837
vt 1.167908 -3.130701
vt -4.313848 1.016806
vt 0.899562 -3.276732
vt 1.188576 4.968539
vt 0.250000 5.060981
vt -0.688576 4.968539
vt -1.591083 4.694767
vt -2.422838 4.250184
vt -3.151877 3.651877
vt -3.750184 2.922837
vt -4.194767 2.091083
vt -4.468539 1.188576
vt -4.560981 0.250000
vt -4.468539 -0.688576
vt -4.194767 -1.591083
vt -3.750184 -2.422838
vt 3.651877 3.651877
vt 2.922838 4.250184
vt 2.091082 4.694767
vt -4.582194 0.870774
vt 0.631215 -3.422764
vt -4.850540 0.724743
vt 0.362869 -3.568795
vt 0.750000 0.490000
vt 0.796822 0.485388
vt 0.841844 0.471731
vt 0.883337 0.449553
vt 0.919706 0.419706
vt 0.949553 0.383337
vt 0.971731 0.341844
vt 0.985388 0.296822
vt 0.990000 0.250000
vt 0.985388 0.203178
vt 0.971731 0.158156
vt 0.949553 0.116663
vt 0.919706 0.080294
vt 0.883337 0.050447
vt 0.841844 0.028269
vt 0.796822 0.014612
vt 0.750000 0.010000
vt 0.703178 0.014612
vt 0.658156 0.028269
vt 0.616663 0.050447
vt 0.580294 0.080294
vt 0.550447 0.116663
vt 0.528269 0.158156
vt 0.514612 0.203178
vt 0.510000 0.250000
vt 0.514612 0.296822
vt 0.528269 0.341844
vt 0.550447 0.383337
vt 0.580294 0.419706
vt 0.616663 0.449553
vt 0.658156 0.471731
vt 0.703178 0.485388
vt -3.145123 -3.145124
vt 4.242242 2.917532
vt 3.645124 3.645123
vt -3.742243 -2.417531
vt 4.250184 2.922837
vt -3.151877 -3.151877
vt -2.422838 -3.750184
vt -1.591083 -4.194767
vt -0.688576 -4.468539
vt 0.250000 -4.560981
vt 1.188576 -4.468539
vt 2.091082 -4.194767
vt 2.922838 -3.750184
vt 3.651877 -3.151877
vt 4.250184 -2.422838
vt 4.694767 -1.591083
vt 4.968539 -0.688576
vt 5.060981 0.250000
vt 4.968539 1.188576
vt 4.694767 2.091083
s 0
usemtl sand
f 1/1/1 2/2/1 4/3/1 3/4/1
f 3/4/2 4/3/2 6/5/2 5/6/2
f 5/6/3 6/5/3 8/7/3 7/8/3
f 7/8/4 8/7/4 10/9/4 9/10/4
f 9/10/5 10/9/5 12/11/5 11/12/5
f 11/12/6 12/11/6 14/13/6 13/14/6
f 13/14/7 14/13/7 16/15/7 15/16/7
f 15/16/8 16/15/8 18/17/8 17/18/8
f 17/18/9 18/17/9 20/19/9 19/20/9
f 19/20/10 20/19/10 22/21/10 21/22/10
f 21/22/11 22/21/11 24/23/11 23/24/11
f 23/24/12 24/23/12 26/25/12 25/26/12
f 25/26/13 26/25/13 28/27/13 27/28/13
f 27/28/14 28/27/14 30/29/14 29/30/14
f 29/30/15 30/29/15 32/31/15 31/32/15
f 31/32/16 32/31/16 34/33/16 33/34/16
f 33/34/17 34/33/17 36/35/17 35/36/17
f 35/36/18 36/35/18 38/37/18 37/38/18
f 37/38/19 38/37/19 40/39/19 39/40/19
f 39/40/20 40/39/20 42/41/20 41/42/20
f 41/42/21 42/41/21 44/43/21 43/44/21
f 43/44/22 44/43/22 46/45/22 45/46/22
f 45/46/23 46/45/23 48/47/23 47/48/23
f 47/48/24 48/47/24 50/49/24 49/50/24
f 49/50/25 50/49/25 52/51/25 51/52/25
f 51/52/26 52/51/26 54/53/26 53/54/26
f 53/54/27 54/53/27 56/55/27 55/56/27
f 55/56/28 56/55/28 58/57/28 57/58/28
f 57/58/29 58/57/29 60/59/29 59/60/29
f 59/60/30 60/59/30 62/61/30 61/62/30
f 61/62/32 62/61/32 64/79/32 63/80/32
f 63/80/33 64/79/33 2/81/33 1/82/33
f 1/83/34 3/84/34 5/85/34 7/86/34 9/87/34 11/88/34 13/89/34 15/90/34 17/91/34 19/92/34 21/93/34 23/94/34 25/95/34 27/96/34 29/97/34 31/98/34 33/99/34 35/100/34 37/101/34 39/102/34 41/103/34 43/104/34 45/105/34 47/106/34 49/107/34 51/108/34 53/109/34 55/110/34 57/111/34 59/112/34 61/113/34 63/114/34
usemtl road
f 10/115/31 44/116/31 42/117/31 12/118/31
usemtl grass
f 4/63/31 2/64/31 64/65/31 62/66/31 60/67/31 58/68/31 56/69/31 54/70/31 52/71/31 50/72/31 48/73/31 46/74/31 44/75/31 10/76/31 8/77/31 6/78/31
f 12/119/31 42/120/31 40/121/31 38/122/31 36/123/31 34/124/31 32/125/31 30/126/31 28/127/31 26/128/31 24/129/31 22/130/31 20/131/31 18/132/31 16/133/31 14/134/31
o 平面
v -2500.000000 0.000000 2500.000000
v 2500.000000 0.000000 2500.000000
v -2500.000000 0.000000 -2500.000000
v 2500.000000 0.000000 -2500.000000
vn -0.0000 1.0000 -0.0000
vt -49.500000 -49.500000
vt 50.500000 -49.500000
vt 50.500000 50.500000
vt -49.500000 50.500000
s 0
usemtl sea
f 65/135/35 66/136/35 68/137/35 67/138/35
